<?xml version="1.0" encoding="UTF-8" standalone="no"?>
<!DOCTYPE svg PUBLIC "-//W3C//DTD SVG 1.1//EN"
 "http://www.w3.org/Graphics/SVG/1.1/DTD/svg11.dtd">
<!-- Generated by graphviz version 12.2.1 (20241206.2353)
 -->
<!-- Title: G Pages: 1 -->
<svg width="920pt" height="1953pt"
 viewBox="0.00 0.00 919.75 1953.00" xmlns="http://www.w3.org/2000/svg" xmlns:xlink="http://www.w3.org/1999/xlink">
<g id="graph0" class="graph" transform="scale(1 1) rotate(0) translate(36 1917)">
<title>G</title>
<polygon fill="#f7f7f7" stroke="none" points="-36,36 -36,-1917 883.75,-1917 883.75,36 -36,36"/>
<!-- appmodelsattendance -->
<g id="node1" class="node">
<title>appmodelsattendance</title>
<polygon fill="none" stroke="black" points="101.12,-989 1.12,-989 1.12,-889 101.12,-889 101.12,-989"/>
<polygon fill="#d3d3d3" stroke="none" points="1.12,-949.75 1.12,-989 101.12,-989 101.12,-949.75 1.12,-949.75"/>
<polygon fill="none" stroke="black" points="1.12,-949.75 1.12,-989 101.12,-989 101.12,-949.75 1.12,-949.75"/>
<text text-anchor="start" x="16.62" y="-964.7" font-family="Helvetica Neue" font-size="14.00" fill="#333333">Attendance</text>
</g>
<!-- appmodelsemployee -->
<g id="node2" class="node">
<title>appmodelsemployee</title>
<polygon fill="none" stroke="black" points="350.75,-989 250.75,-989 250.75,-889 350.75,-889 350.75,-989"/>
<polygon fill="#d3d3d3" stroke="none" points="250.75,-949.75 250.75,-989 350.75,-989 350.75,-949.75 250.75,-949.75"/>
<polygon fill="none" stroke="black" points="250.75,-949.75 250.75,-989 350.75,-989 350.75,-949.75 250.75,-949.75"/>
<text text-anchor="start" x="271.12" y="-964.7" font-family="Helvetica Neue" font-size="14.00" fill="#333333">Employee</text>
</g>
<!-- appmodelsattendance&#45;&gt;appmodelsemployee -->
<g id="edge1" class="edge">
<title>appmodelsattendance:employee_id&#45;&gt;appmodelsemployee:id</title>
<path fill="none" stroke="#f77f00" stroke-width="1.8" d="M112.1,-939C152.9,-939 206.44,-939 245.89,-939"/>
<polygon fill="#f77f00" stroke="#f77f00" stroke-width="1.8" points="111.95,-939 101.95,-934.5 106.34,-939 102.55,-939 102.55,-939 102.55,-939 106.34,-939 101.95,-943.5 111.95,-939"/>
<polygon fill="#f77f00" stroke="#f77f00" stroke-width="1.8" points="249.62,-934 249.62,-944 247.62,-944 247.62,-934 249.62,-934"/>
<polyline fill="none" stroke="#f77f00" stroke-width="1.8" points="250.62,-939 245.62,-939"/>
<text text-anchor="middle" x="176.5" y="-942.95" font-family="Helvetica Neue" font-size="14.00"> </text>
<text text-anchor="middle" x="209.74" y="-925.7" font-family="Helvetica Neue" font-size="14.00">BelongsTo</text>
<text text-anchor="middle" x="209.74" y="-908.45" font-family="Helvetica Neue" font-size="14.00">employee</text>
</g>
<!-- appmodelsemployee&#45;&gt;appmodelsattendance -->
<g id="edge8" class="edge">
<title>appmodelsemployee:id&#45;&gt;appmodelsattendance:employee_id</title>
<path fill="none" stroke="#fcbf49" stroke-width="1.8" d="M250.53,-924.66C217.04,-914.9 178.75,-903.75 178.75,-903.75 178.75,-903.75 174.25,-903.75 174.25,-903.75 174.25,-903.75 142.57,-912.89 111.48,-921.87"/>
<polygon fill="#fcbf49" stroke="#fcbf49" stroke-width="1.8" points="111.63,-921.82 100.78,-920.27 106.25,-923.38 102.6,-924.43 102.6,-924.43 102.6,-924.43 106.25,-923.38 103.27,-928.92 111.63,-921.82"/>
<text text-anchor="middle" x="176.5" y="-907.7" font-family="Helvetica Neue" font-size="14.00"> </text>
<text text-anchor="middle" x="143.99" y="-891.14" font-family="Helvetica Neue" font-size="14.00">HasMany</text>
<text text-anchor="middle" x="143.99" y="-873.89" font-family="Helvetica Neue" font-size="14.00">attendances</text>
</g>
<!-- appmodelscheck -->
<g id="node3" class="node">
<title>appmodelscheck</title>
<polygon fill="none" stroke="black" points="599.25,-1881 499.25,-1881 499.25,-1781 599.25,-1781 599.25,-1881"/>
<polygon fill="#d3d3d3" stroke="none" points="499.25,-1841.75 499.25,-1881 599.25,-1881 599.25,-1841.75 499.25,-1841.75"/>
<polygon fill="none" stroke="black" points="499.25,-1841.75 499.25,-1881 599.25,-1881 599.25,-1841.75 499.25,-1841.75"/>
<text text-anchor="start" x="530.88" y="-1856.7" font-family="Helvetica Neue" font-size="14.00" fill="#333333">Check</text>
</g>
<!-- appmodelsemployee&#45;&gt;appmodelscheck -->
<g id="edge11" class="edge">
<title>appmodelsemployee:id&#45;&gt;appmodelscheck:employee_id</title>
<path fill="none" stroke="#fcbf49" stroke-width="1.8" d="M313.13,-989.24C343.25,-1122.17 422.75,-1473 422.75,-1473 422.75,-1473 499.25,-1744 499.25,-1744 499.25,-1744 506.1,-1756.16 514.68,-1771.39"/>
<polygon fill="#fcbf49" stroke="#fcbf49" stroke-width="1.8" points="514.69,-1771.41 515.67,-1782.33 517.43,-1776.29 519.3,-1779.59 519.3,-1779.59 519.3,-1779.59 517.43,-1776.29 523.51,-1777.91 514.69,-1771.41"/>
<text text-anchor="middle" x="425" y="-1491.4" font-family="Helvetica Neue" font-size="14.00"> </text>
<text text-anchor="middle" x="374.78" y="-1370.46" font-family="Helvetica Neue" font-size="14.00">HasMany</text>
<text text-anchor="middle" x="374.78" y="-1353.21" font-family="Helvetica Neue" font-size="14.00">check</text>
</g>
<!-- appmodelsdepart -->
<g id="node4" class="node">
<title>appmodelsdepart</title>
<polygon fill="none" stroke="black" points="599.25,-1708 499.25,-1708 499.25,-1608 599.25,-1608 599.25,-1708"/>
<polygon fill="#d3d3d3" stroke="none" points="499.25,-1668.75 499.25,-1708 599.25,-1708 599.25,-1668.75 499.25,-1668.75"/>
<polygon fill="none" stroke="black" points="499.25,-1668.75 499.25,-1708 599.25,-1708 599.25,-1668.75 499.25,-1668.75"/>
<text text-anchor="start" x="528.25" y="-1683.7" font-family="Helvetica Neue" font-size="14.00" fill="#333333">Depart</text>
</g>
<!-- appmodelsemployee&#45;&gt;appmodelsdepart -->
<g id="edge10" class="edge">
<title>appmodelsemployee:id&#45;&gt;appmodelsdepart:employee_id</title>
<path fill="none" stroke="#fcbf49" stroke-width="1.8" d="M315.99,-989.24C347.97,-1102.11 422.75,-1366 422.75,-1366 422.75,-1366 499.25,-1572 499.25,-1572 499.25,-1572 506.04,-1583.92 514.56,-1598.88"/>
<polygon fill="#fcbf49" stroke="#fcbf49" stroke-width="1.8" points="514.5,-1598.76 515.54,-1609.68 517.27,-1603.63 519.15,-1606.93 519.15,-1606.93 519.15,-1606.93 517.27,-1603.63 523.36,-1605.22 514.5,-1598.76"/>
<text text-anchor="middle" x="425" y="-1380.93" font-family="Helvetica Neue" font-size="14.00"> </text>
<text text-anchor="middle" x="375.79" y="-1284.91" font-family="Helvetica Neue" font-size="14.00">HasMany</text>
<text text-anchor="middle" x="375.79" y="-1267.66" font-family="Helvetica Neue" font-size="14.00">departs</text>
</g>
<!-- appmodelsdesignation -->
<g id="node5" class="node">
<title>appmodelsdesignation</title>
<polygon fill="none" stroke="black" points="599.25,-1536 499.25,-1536 499.25,-1436 599.25,-1436 599.25,-1536"/>
<polygon fill="#d3d3d3" stroke="none" points="499.25,-1496.75 499.25,-1536 599.25,-1536 599.25,-1496.75 499.25,-1496.75"/>
<polygon fill="none" stroke="black" points="499.25,-1496.75 499.25,-1536 599.25,-1536 599.25,-1496.75 499.25,-1496.75"/>
<text text-anchor="start" x="513.62" y="-1511.7" font-family="Helvetica Neue" font-size="14.00" fill="#333333">Designation</text>
</g>
<!-- appmodelsemployee&#45;&gt;appmodelsdesignation -->
<g id="edge7" class="edge">
<title>appmodelsemployee:designation_id&#45;&gt;appmodelsdesignation:id</title>
<path fill="none" stroke="#f77f00" stroke-width="1.8" d="M324.37,-999C359.39,-1091.91 422.75,-1260 422.75,-1260 422.75,-1260 499.25,-1400 499.25,-1400 499.25,-1400 507.65,-1414.74 517.49,-1432.02"/>
<polygon fill="#f77f00" stroke="#f77f00" stroke-width="1.8" points="324.4,-999.08 325.08,-988.13 322.42,-993.83 321.08,-990.28 321.08,-990.28 321.08,-990.28 322.42,-993.83 316.66,-991.31 324.4,-999.08"/>
<polygon fill="#f77f00" stroke="#f77f00" stroke-width="1.8" points="523.6,-1432.63 514.91,-1437.58 513.92,-1435.84 522.61,-1430.89 523.6,-1432.63"/>
<polyline fill="none" stroke="#f77f00" stroke-width="1.8" points="519.75,-1435.97 517.27,-1431.63"/>
<text text-anchor="middle" x="425" y="-1271.41" font-family="Helvetica Neue" font-size="14.00"> </text>
<text text-anchor="middle" x="373.69" y="-1208.08" font-family="Helvetica Neue" font-size="14.00">BelongsTo</text>
<text text-anchor="middle" x="373.69" y="-1190.83" font-family="Helvetica Neue" font-size="14.00">designation</text>
</g>
<!-- appmodelsuser -->
<g id="node6" class="node">
<title>appmodelsuser</title>
<polygon fill="none" stroke="black" points="599.25,-1364 499.25,-1364 499.25,-1264 599.25,-1264 599.25,-1364"/>
<polygon fill="#d3d3d3" stroke="none" points="499.25,-1324.75 499.25,-1364 599.25,-1364 599.25,-1324.75 499.25,-1324.75"/>
<polygon fill="none" stroke="black" points="499.25,-1324.75 499.25,-1364 599.25,-1364 599.25,-1324.75 499.25,-1324.75"/>
<text text-anchor="start" x="535.38" y="-1339.7" font-family="Helvetica Neue" font-size="14.00" fill="#333333">User</text>
</g>
<!-- appmodelsemployee&#45;&gt;appmodelsuser -->
<g id="edge5" class="edge">
<title>appmodelsemployee:user_id&#45;&gt;appmodelsuser:id</title>
<path fill="none" stroke="#f77f00" stroke-width="1.8" d="M340.43,-997.85C387.56,-1069.54 466.54,-1189.7 512.36,-1259.41"/>
<polygon fill="#f77f00" stroke="#f77f00" stroke-width="1.8" points="340.56,-998.04 338.83,-987.22 337.48,-993.36 335.4,-990.19 335.4,-990.19 335.4,-990.19 337.48,-993.36 331.31,-992.16 340.56,-998.04"/>
<polygon fill="#f77f00" stroke="#f77f00" stroke-width="1.8" points="518.69,-1259.93 510.34,-1265.42 509.24,-1263.75 517.59,-1258.26 518.69,-1259.93"/>
<polyline fill="none" stroke="#f77f00" stroke-width="1.8" points="515.06,-1263.51 512.32,-1259.34"/>
<text text-anchor="middle" x="425" y="-1130.45" font-family="Helvetica Neue" font-size="14.00"> </text>
<text text-anchor="middle" x="457.15" y="-1115.33" font-family="Helvetica Neue" font-size="14.00">BelongsTo</text>
<text text-anchor="middle" x="457.15" y="-1098.08" font-family="Helvetica Neue" font-size="14.00">user</text>
</g>
<!-- appmodelsdepartment -->
<g id="node7" class="node">
<title>appmodelsdepartment</title>
<polygon fill="none" stroke="black" points="599.25,-1192 499.25,-1192 499.25,-1092 599.25,-1092 599.25,-1192"/>
<polygon fill="#d3d3d3" stroke="none" points="499.25,-1152.75 499.25,-1192 599.25,-1192 599.25,-1152.75 499.25,-1152.75"/>
<polygon fill="none" stroke="black" points="499.25,-1152.75 499.25,-1192 599.25,-1192 599.25,-1152.75 499.25,-1152.75"/>
<text text-anchor="start" x="512.5" y="-1167.7" font-family="Helvetica Neue" font-size="14.00" fill="#333333">Department</text>
</g>
<!-- appmodelsemployee&#45;&gt;appmodelsdepartment -->
<g id="edge6" class="edge">
<title>appmodelsemployee:department_id&#45;&gt;appmodelsdepartment:id</title>
<path fill="none" stroke="#f77f00" stroke-width="1.8" d="M359.28,-986.55C390.49,-1012.34 422.75,-1039 422.75,-1039 422.75,-1039 461.01,-1070.4 495.28,-1098.53"/>
<polygon fill="#f77f00" stroke="#f77f00" stroke-width="1.8" points="359.14,-986.43 354.3,-976.59 354.82,-982.86 351.89,-980.44 351.89,-980.44 351.89,-980.44 354.82,-982.86 348.56,-983.53 359.14,-986.43"/>
<polygon fill="#f77f00" stroke="#f77f00" stroke-width="1.8" points="501.41,-1097.09 495.06,-1104.82 493.52,-1103.55 499.86,-1095.82 501.41,-1097.09"/>
<polyline fill="none" stroke="#f77f00" stroke-width="1.8" points="499.01,-1101.59 495.14,-1098.42"/>
<text text-anchor="middle" x="425" y="-1045.83" font-family="Helvetica Neue" font-size="14.00"> </text>
<text text-anchor="middle" x="462.82" y="-1029.35" font-family="Helvetica Neue" font-size="14.00">BelongsTo</text>
<text text-anchor="middle" x="462.82" y="-1012.1" font-family="Helvetica Neue" font-size="14.00">department</text>
</g>
<!-- appmodelsschedule -->
<g id="node8" class="node">
<title>appmodelsschedule</title>
<polygon fill="none" stroke="black" points="599.25,-1020 499.25,-1020 499.25,-920 599.25,-920 599.25,-1020"/>
<polygon fill="#d3d3d3" stroke="none" points="499.25,-980.75 499.25,-1020 599.25,-1020 599.25,-980.75 499.25,-980.75"/>
<polygon fill="none" stroke="black" points="499.25,-980.75 499.25,-1020 599.25,-1020 599.25,-980.75 499.25,-980.75"/>
<text text-anchor="start" x="521.88" y="-995.7" font-family="Helvetica Neue" font-size="14.00" fill="#333333">Schedule</text>
</g>
<!-- appmodelsemployee&#45;&gt;appmodelsschedule -->
<g id="edge9" class="edge">
<title>appmodelsemployee:schedule_id&#45;&gt;appmodelsschedule:id</title>
<path fill="none" stroke="#f77f00" stroke-width="1.8" d="M360.08,-970.33C391.04,-986.96 422.75,-1004 422.75,-1004 422.75,-1004 427.25,-1004 427.25,-1004 427.25,-1004 462.03,-994.23 494.3,-985.16"/>
<polygon fill="#f77f00" stroke="#f77f00" stroke-width="1.8" points="360.31,-970.46 353.63,-961.76 355.37,-967.8 352.03,-966.01 352.03,-966.01 352.03,-966.01 355.37,-967.8 349.37,-969.69 360.31,-970.46"/>
<polygon fill="#f77f00" stroke="#f77f00" stroke-width="1.8" points="496.72,-979.29 499.42,-988.91 497.5,-989.45 494.79,-979.83 496.72,-979.29"/>
<polyline fill="none" stroke="#f77f00" stroke-width="1.8" points="499.03,-983.83 494.22,-985.18"/>
<text text-anchor="middle" x="425" y="-1007.95" font-family="Helvetica Neue" font-size="14.00"> </text>
<text text-anchor="middle" x="393.5" y="-990.7" font-family="Helvetica Neue" font-size="14.00">BelongsTo</text>
<text text-anchor="middle" x="393.5" y="-973.45" font-family="Helvetica Neue" font-size="14.00">schedule</text>
</g>
<!-- appmodelssalary -->
<g id="node9" class="node">
<title>appmodelssalary</title>
<polygon fill="none" stroke="black" points="599.25,-848 499.25,-848 499.25,-748 599.25,-748 599.25,-848"/>
<polygon fill="#d3d3d3" stroke="none" points="499.25,-808.75 499.25,-848 599.25,-848 599.25,-808.75 499.25,-808.75"/>
<polygon fill="none" stroke="black" points="499.25,-808.75 499.25,-848 599.25,-848 599.25,-808.75 499.25,-808.75"/>
<text text-anchor="start" x="530.5" y="-823.7" font-family="Helvetica Neue" font-size="14.00" fill="#333333">Salary</text>
</g>
<!-- appmodelsemployee&#45;&gt;appmodelssalary -->
<g id="edge12" class="edge">
<title>appmodelsemployee:id&#45;&gt;appmodelssalary:employee_id</title>
<path fill="none" stroke="#d62828" stroke-width="1.8" d="M351.04,-910.81C392.69,-886.98 452.22,-852.93 494.96,-828.48"/>
<polygon fill="#d62828" stroke="#d62828" stroke-width="1.8" points="495.69,-822.3 500.66,-830.98 498.92,-831.98 493.96,-823.3 495.69,-822.3"/>
<polyline fill="none" stroke="#d62828" stroke-width="1.8" points="499.04,-826.15 494.7,-828.63"/>
<text text-anchor="middle" x="425" y="-872.45" font-family="Helvetica Neue" font-size="14.00"> </text>
<text text-anchor="middle" x="399" y="-856.34" font-family="Helvetica Neue" font-size="14.00">HasOne</text>
<text text-anchor="middle" x="399" y="-839.09" font-family="Helvetica Neue" font-size="14.00">salary</text>
</g>
<!-- appmodelsleave -->
<g id="node10" class="node">
<title>appmodelsleave</title>
<polygon fill="none" stroke="black" points="599.25,-672 499.25,-672 499.25,-572 599.25,-572 599.25,-672"/>
<polygon fill="#d3d3d3" stroke="none" points="499.25,-632.75 499.25,-672 599.25,-672 599.25,-632.75 499.25,-632.75"/>
<polygon fill="none" stroke="black" points="499.25,-632.75 499.25,-672 599.25,-672 599.25,-632.75 499.25,-632.75"/>
<text text-anchor="start" x="531.25" y="-647.7" font-family="Helvetica Neue" font-size="14.00" fill="#333333">Leave</text>
</g>
<!-- appmodelsemployee&#45;&gt;appmodelsleave -->
<g id="edge13" class="edge">
<title>appmodelsemployee:id&#45;&gt;appmodelsleave:employee_id</title>
<path fill="none" stroke="#fcbf49" stroke-width="1.8" d="M340.81,-888.77C384.83,-832.16 456.29,-740.26 502.78,-680.47"/>
<polygon fill="#fcbf49" stroke="#fcbf49" stroke-width="1.8" points="502.66,-680.63 512.35,-675.49 506.1,-676.2 508.43,-673.21 508.43,-673.21 508.43,-673.21 506.1,-676.2 505.25,-669.97 502.66,-680.63"/>
<text text-anchor="middle" x="425" y="-784.45" font-family="Helvetica Neue" font-size="14.00"> </text>
<text text-anchor="middle" x="394.05" y="-805.82" font-family="Helvetica Neue" font-size="14.00">HasMany</text>
<text text-anchor="middle" x="394.05" y="-788.57" font-family="Helvetica Neue" font-size="14.00">leaves</text>
</g>
<!-- appmodelslatetime -->
<g id="node11" class="node">
<title>appmodelslatetime</title>
<polygon fill="none" stroke="black" points="599.25,-492 499.25,-492 499.25,-392 599.25,-392 599.25,-492"/>
<polygon fill="#d3d3d3" stroke="none" points="499.25,-452.75 499.25,-492 599.25,-492 599.25,-452.75 499.25,-452.75"/>
<polygon fill="none" stroke="black" points="499.25,-452.75 499.25,-492 599.25,-492 599.25,-452.75 499.25,-452.75"/>
<text text-anchor="start" x="521.5" y="-467.7" font-family="Helvetica Neue" font-size="14.00" fill="#333333">LateTime</text>
</g>
<!-- appmodelsemployee&#45;&gt;appmodelslatetime -->
<g id="edge14" class="edge">
<title>appmodelsemployee:id&#45;&gt;appmodelslatetime:employee_id</title>
<path fill="none" stroke="#fcbf49" stroke-width="1.8" d="M326.36,-888.77C379.31,-780.74 499.25,-536 499.25,-536 499.25,-536 507.39,-520.38 517.04,-501.87"/>
<polygon fill="#fcbf49" stroke="#fcbf49" stroke-width="1.8" points="517.13,-501.7 525.74,-494.92 519.72,-496.74 521.47,-493.37 521.47,-493.37 521.47,-493.37 519.72,-496.74 517.76,-490.76 517.13,-501.7"/>
<text text-anchor="middle" x="425" y="-693.5" font-family="Helvetica Neue" font-size="14.00"> </text>
<text text-anchor="middle" x="393.53" y="-716.31" font-family="Helvetica Neue" font-size="14.00">HasMany</text>
<text text-anchor="middle" x="393.53" y="-699.06" font-family="Helvetica Neue" font-size="14.00">lateTime</text>
</g>
<!-- appmodelsovertime -->
<g id="node12" class="node">
<title>appmodelsovertime</title>
<polygon fill="none" stroke="black" points="599.25,-304 499.25,-304 499.25,-204 599.25,-204 599.25,-304"/>
<polygon fill="#d3d3d3" stroke="none" points="499.25,-264.75 499.25,-304 599.25,-304 599.25,-264.75 499.25,-264.75"/>
<polygon fill="none" stroke="black" points="499.25,-264.75 499.25,-304 599.25,-304 599.25,-264.75 499.25,-264.75"/>
<text text-anchor="start" x="519.25" y="-279.7" font-family="Helvetica Neue" font-size="14.00" fill="#333333">OverTime</text>
</g>
<!-- appmodelsemployee&#45;&gt;appmodelsovertime -->
<g id="edge15" class="edge">
<title>appmodelsemployee:id&#45;&gt;appmodelsovertime:employee_id</title>
<path fill="none" stroke="#fcbf49" stroke-width="1.8" d="M318.85,-888.54C366.82,-746.91 499.25,-356 499.25,-356 499.25,-356 508.78,-336.17 519.43,-314"/>
<polygon fill="#fcbf49" stroke="#fcbf49" stroke-width="1.8" points="519.45,-313.96 527.83,-306.89 521.87,-308.91 523.52,-305.49 523.52,-305.49 523.52,-305.49 521.87,-308.91 519.72,-303 519.45,-313.96"/>
<text text-anchor="middle" x="425" y="-582.09" font-family="Helvetica Neue" font-size="14.00"> </text>
<text text-anchor="middle" x="387.65" y="-621.4" font-family="Helvetica Neue" font-size="14.00">HasMany</text>
<text text-anchor="middle" x="387.65" y="-604.15" font-family="Helvetica Neue" font-size="14.00">overTime</text>
</g>
<!-- appmodelspayroll -->
<g id="node13" class="node">
<title>appmodelspayroll</title>
<polygon fill="none" stroke="black" points="599.25,-100 499.25,-100 499.25,0 599.25,0 599.25,-100"/>
<polygon fill="#d3d3d3" stroke="none" points="499.25,-60.75 499.25,-100 599.25,-100 599.25,-60.75 499.25,-60.75"/>
<polygon fill="none" stroke="black" points="499.25,-60.75 499.25,-100 599.25,-100 599.25,-60.75 499.25,-60.75"/>
<text text-anchor="start" x="529" y="-75.7" font-family="Helvetica Neue" font-size="14.00" fill="#333333">Payroll</text>
</g>
<!-- appmodelsemployee&#45;&gt;appmodelspayroll -->
<g id="edge16" class="edge">
<title>appmodelsemployee:id&#45;&gt;appmodelspayroll:employee_id</title>
<path fill="none" stroke="#fcbf49" stroke-width="1.8" d="M314.63,-888.71C358.48,-717.52 499.25,-168 499.25,-168 499.25,-168 511.16,-139.31 523.24,-110.22"/>
<polygon fill="#fcbf49" stroke="#fcbf49" stroke-width="1.8" points="523.26,-110.18 531.25,-102.67 525.41,-105 526.87,-101.5 526.87,-101.5 526.87,-101.5 525.41,-105 522.94,-99.22 523.26,-110.18"/>
<text text-anchor="middle" x="425" y="-465.72" font-family="Helvetica Neue" font-size="14.00"> </text>
<text text-anchor="middle" x="386.95" y="-519.25" font-family="Helvetica Neue" font-size="14.00">HasMany</text>
<text text-anchor="middle" x="386.95" y="-502" font-family="Helvetica Neue" font-size="14.00">payrolls</text>
</g>
<!-- appmodelscheck&#45;&gt;appmodelsemployee -->
<g id="edge2" class="edge">
<title>appmodelscheck:employees_id&#45;&gt;appmodelsemployee:id</title>
<path fill="none" stroke="#f77f00" stroke-width="1.8" d="M514.68,-1771.39C506.1,-1756.16 499.25,-1744 499.25,-1744 499.25,-1744 359.83,-1175.71 315.27,-994.1"/>
<polygon fill="#f77f00" stroke="#f77f00" stroke-width="1.8" points="514.69,-1771.41 515.67,-1782.33 517.43,-1776.29 519.3,-1779.59 519.3,-1779.59 519.3,-1779.59 517.43,-1776.29 523.51,-1777.91 514.69,-1771.41"/>
<polygon fill="#f77f00" stroke="#f77f00" stroke-width="1.8" points="309.49,-991.52 319.2,-989.14 319.68,-991.08 309.96,-993.46 309.49,-991.52"/>
<polyline fill="none" stroke="#f77f00" stroke-width="1.8" points="314.1,-989.36 315.3,-994.21"/>
<text text-anchor="middle" x="425" y="-1441.23" font-family="Helvetica Neue" font-size="14.00"> </text>
<text text-anchor="middle" x="378.38" y="-1405.51" font-family="Helvetica Neue" font-size="14.00">BelongsTo</text>
<text text-anchor="middle" x="378.38" y="-1388.26" font-family="Helvetica Neue" font-size="14.00">employees</text>
</g>
<!-- appmodelsdepart&#45;&gt;appmodelsemployee -->
<g id="edge3" class="edge">
<title>appmodelsdepart:employee_id&#45;&gt;appmodelsemployee:id</title>
<path fill="none" stroke="#f77f00" stroke-width="1.8" d="M514.56,-1598.88C506.04,-1583.92 499.25,-1572 499.25,-1572 499.25,-1572 366.91,-1147.84 318.89,-993.94"/>
<polygon fill="#f77f00" stroke="#f77f00" stroke-width="1.8" points="514.5,-1598.76 515.54,-1609.68 517.27,-1603.63 519.15,-1606.93 519.15,-1606.93 519.15,-1606.93 517.27,-1603.63 523.36,-1605.22 514.5,-1598.76"/>
<polygon fill="#f77f00" stroke="#f77f00" stroke-width="1.8" points="313.02,-991.91 322.57,-988.93 323.16,-990.84 313.62,-993.82 313.02,-991.91"/>
<polyline fill="none" stroke="#f77f00" stroke-width="1.8" points="317.5,-989.46 318.98,-994.24"/>
<text text-anchor="middle" x="425" y="-1334.76" font-family="Helvetica Neue" font-size="14.00"> </text>
<text text-anchor="middle" x="444.43" y="-1310.31" font-family="Helvetica Neue" font-size="14.00">BelongsTo</text>
<text text-anchor="middle" x="444.43" y="-1293.06" font-family="Helvetica Neue" font-size="14.00">employee</text>
</g>
<!-- appmodelsdesignation&#45;&gt;appmodelsemployee -->
<g id="edge4" class="edge">
<title>appmodelsdesignation:id&#45;&gt;appmodelsemployee:designation_id</title>
<path fill="none" stroke="#fcbf49" stroke-width="1.8" d="M519.75,-1435.97C508.97,-1417.05 499.25,-1400 499.25,-1400 499.25,-1400 380.94,-1123.85 327.46,-999.01"/>
<polygon fill="#fcbf49" stroke="#fcbf49" stroke-width="1.8" points="327.44,-998.96 327.64,-987.99 325.23,-993.81 323.74,-990.32 323.74,-990.32 323.74,-990.32 325.23,-993.81 319.36,-991.54 327.44,-998.96"/>
<text text-anchor="middle" x="425" y="-1228.3" font-family="Helvetica Neue" font-size="14.00"> </text>
<text text-anchor="middle" x="454.13" y="-1205.24" font-family="Helvetica Neue" font-size="14.00">HasMany</text>
<text text-anchor="middle" x="454.13" y="-1187.99" font-family="Helvetica Neue" font-size="14.00">employees</text>
</g>
<!-- appmodelsrole -->
<g id="node14" class="node">
<title>appmodelsrole</title>
<polygon fill="none" stroke="black" points="847.75,-1364 747.75,-1364 747.75,-1264 847.75,-1264 847.75,-1364"/>
<polygon fill="#d3d3d3" stroke="none" points="747.75,-1324.75 747.75,-1364 847.75,-1364 847.75,-1324.75 747.75,-1324.75"/>
<polygon fill="none" stroke="black" points="747.75,-1324.75 747.75,-1364 847.75,-1364 847.75,-1324.75 747.75,-1324.75"/>
<text text-anchor="start" x="784.62" y="-1339.7" font-family="Helvetica Neue" font-size="14.00" fill="#333333">Role</text>
</g>
<!-- appmodelsuser&#45;&gt;appmodelsrole -->
<g id="edge24" class="edge">
<title>appmodelsuser:role_id&#45;&gt;appmodelsrole:id</title>
<path fill="none" stroke="#f77f00" stroke-width="1.8" d="M610.22,-1314C650.7,-1314 703.69,-1314 742.84,-1314"/>
<polygon fill="#f77f00" stroke="#f77f00" stroke-width="1.8" points="610.14,-1314 600.14,-1309.5 604.54,-1314 600.74,-1314 600.74,-1314 600.74,-1314 604.54,-1314 600.14,-1318.5 610.14,-1314"/>
<polygon fill="#f77f00" stroke="#f77f00" stroke-width="1.8" points="746.54,-1309 746.55,-1319 744.55,-1319 744.54,-1309 746.54,-1309"/>
<polyline fill="none" stroke="#f77f00" stroke-width="1.8" points="747.54,-1314 742.54,-1314"/>
<text text-anchor="middle" x="673.5" y="-1317.95" font-family="Helvetica Neue" font-size="14.00"> </text>
<text text-anchor="middle" x="645.78" y="-1300.7" font-family="Helvetica Neue" font-size="14.00">BelongsTo</text>
<text text-anchor="middle" x="645.78" y="-1283.45" font-family="Helvetica Neue" font-size="14.00">role</text>
</g>
<!-- appmodelsschedule&#45;&gt;appmodelsemployee -->
<g id="edge23" class="edge">
<title>appmodelsschedule:id&#45;&gt;appmodelsemployee:schedule_id</title>
<path fill="none" stroke="#fcbf49" stroke-width="1.8" d="M499.04,-963.81C459.52,-958.84 403.85,-951.84 361.72,-946.54"/>
<polygon fill="#fcbf49" stroke="#fcbf49" stroke-width="1.8" points="361.56,-946.52 352.2,-940.81 356,-945.82 352.24,-945.35 352.24,-945.35 352.24,-945.35 356,-945.82 351.08,-949.74 361.56,-946.52"/>
<text text-anchor="middle" x="425" y="-958.45" font-family="Helvetica Neue" font-size="14.00"> </text>
<text text-anchor="middle" x="463.01" y="-941.88" font-family="Helvetica Neue" font-size="14.00">HasMany</text>
<text text-anchor="middle" x="463.01" y="-924.63" font-family="Helvetica Neue" font-size="14.00">employees</text>
</g>
<!-- appmodelssalary&#45;&gt;appmodelsemployee -->
<g id="edge22" class="edge">
<title>appmodelssalary:employee_id&#45;&gt;appmodelsemployee:id</title>
<path fill="none" stroke="#f77f00" stroke-width="1.8" d="M489,-814.41C456.5,-823.4 422.75,-832.75 422.75,-832.75 422.75,-832.75 387.11,-864.05 354.51,-892.67"/>
<polygon fill="#f77f00" stroke="#f77f00" stroke-width="1.8" points="488.79,-814.46 499.63,-816.13 494.19,-812.97 497.85,-811.96 497.85,-811.96 497.85,-811.96 494.19,-812.97 497.23,-807.46 488.79,-814.46"/>
<polygon fill="#f77f00" stroke="#f77f00" stroke-width="1.8" points="355.02,-898.88 348.42,-891.37 349.92,-890.05 356.52,-897.56 355.02,-898.88"/>
<polyline fill="none" stroke="#f77f00" stroke-width="1.8" points="350.97,-895.78 354.72,-892.48"/>
<text text-anchor="middle" x="425" y="-836.7" font-family="Helvetica Neue" font-size="14.00"> </text>
<text text-anchor="middle" x="445.21" y="-826.73" font-family="Helvetica Neue" font-size="14.00">BelongsTo</text>
<text text-anchor="middle" x="445.21" y="-809.48" font-family="Helvetica Neue" font-size="14.00">employee</text>
</g>
<!-- appmodelsleave&#45;&gt;appmodelsemployee -->
<g id="edge18" class="edge">
<title>appmodelsleave:employee_id&#45;&gt;appmodelsemployee:id</title>
<path fill="none" stroke="#f77f00" stroke-width="1.8" d="M491.52,-677.49C458.27,-710.01 422.75,-744.75 422.75,-744.75 422.75,-744.75 371.41,-827.16 335.62,-884.63"/>
<polygon fill="#f77f00" stroke="#f77f00" stroke-width="1.8" points="491.43,-677.58 501.73,-673.8 495.43,-673.66 498.15,-671 498.15,-671 498.15,-671 495.43,-673.66 495.43,-667.37 491.43,-677.58"/>
<polygon fill="#f77f00" stroke="#f77f00" stroke-width="1.8" points="337.84,-890.52 329.35,-885.23 330.41,-883.53 338.9,-888.82 337.84,-890.52"/>
<polyline fill="none" stroke="#f77f00" stroke-width="1.8" points="333.07,-888.72 335.71,-884.48"/>
<text text-anchor="middle" x="425" y="-748.7" font-family="Helvetica Neue" font-size="14.00"> </text>
<text text-anchor="middle" x="373.86" y="-760.56" font-family="Helvetica Neue" font-size="14.00">BelongsTo</text>
<text text-anchor="middle" x="373.86" y="-743.31" font-family="Helvetica Neue" font-size="14.00">employee</text>
</g>
<!-- appmodelslatetime&#45;&gt;appmodelsemployee -->
<g id="edge17" class="edge">
<title>appmodelslatetime:employee_id&#45;&gt;appmodelsemployee:id</title>
<path fill="none" stroke="#f77f00" stroke-width="1.8" d="M513.16,-501.49C476.03,-564.43 422.75,-654.75 422.75,-654.75 422.75,-654.75 360.27,-801.53 325.1,-884.14"/>
<polygon fill="#f77f00" stroke="#f77f00" stroke-width="1.8" points="513.12,-501.55 522.08,-495.22 515.97,-496.73 517.9,-493.46 517.9,-493.46 517.9,-493.46 515.97,-496.73 514.33,-490.65 513.12,-501.55"/>
<polygon fill="#f77f00" stroke="#f77f00" stroke-width="1.8" points="328.24,-889.55 319.03,-885.63 319.82,-883.79 329.02,-887.71 328.24,-889.55"/>
<polyline fill="none" stroke="#f77f00" stroke-width="1.8" points="323.24,-888.51 325.2,-883.91"/>
<text text-anchor="middle" x="425" y="-658.7" font-family="Helvetica Neue" font-size="14.00"> </text>
<text text-anchor="middle" x="378.02" y="-674.28" font-family="Helvetica Neue" font-size="14.00">BelongsTo</text>
<text text-anchor="middle" x="378.02" y="-657.03" font-family="Helvetica Neue" font-size="14.00">employee</text>
</g>
<!-- appmodelsovertime&#45;&gt;appmodelsemployee -->
<g id="edge19" class="edge">
<title>appmodelsovertime:employee_id&#45;&gt;appmodelsemployee:id</title>
<path fill="none" stroke="#f77f00" stroke-width="1.8" d="M519.43,-314C508.78,-336.17 499.25,-356 499.25,-356 499.25,-356 422.75,-542.75 422.75,-542.75 422.75,-542.75 351.76,-775.23 318.53,-884.04"/>
<polygon fill="#f77f00" stroke="#f77f00" stroke-width="1.8" points="519.45,-313.96 527.83,-306.89 521.87,-308.91 523.52,-305.49 523.52,-305.49 523.52,-305.49 521.87,-308.91 519.72,-303 519.45,-313.96"/>
<polygon fill="#f77f00" stroke="#f77f00" stroke-width="1.8" points="322.15,-889.32 312.58,-886.4 313.17,-884.49 322.73,-887.41 322.15,-889.32"/>
<polyline fill="none" stroke="#f77f00" stroke-width="1.8" points="317.07,-888.81 318.54,-884.03"/>
<text text-anchor="middle" x="425" y="-546.7" font-family="Helvetica Neue" font-size="14.00"> </text>
<text text-anchor="middle" x="376.16" y="-581.31" font-family="Helvetica Neue" font-size="14.00">BelongsTo</text>
<text text-anchor="middle" x="376.16" y="-564.06" font-family="Helvetica Neue" font-size="14.00">employee</text>
</g>
<!-- appmodelspayroll&#45;&gt;appmodelsemployee -->
<g id="edge20" class="edge">
<title>appmodelspayroll:employee_id&#45;&gt;appmodelsemployee:id</title>
<path fill="none" stroke="#f77f00" stroke-width="1.8" d="M523.24,-110.22C511.16,-139.31 499.25,-168 499.25,-168 499.25,-168 422.75,-426.75 422.75,-426.75 422.75,-426.75 345.85,-752.29 314.66,-884.34"/>
<polygon fill="#f77f00" stroke="#f77f00" stroke-width="1.8" points="523.26,-110.18 531.25,-102.67 525.41,-105 526.87,-101.5 526.87,-101.5 526.87,-101.5 525.41,-105 522.94,-99.22 523.26,-110.18"/>
<polygon fill="#f77f00" stroke="#f77f00" stroke-width="1.8" points="318.67,-889.13 308.94,-886.83 309.4,-884.88 319.13,-887.18 318.67,-889.13"/>
<polyline fill="none" stroke="#f77f00" stroke-width="1.8" points="313.57,-888.95 314.72,-884.08"/>
<text text-anchor="middle" x="425" y="-430.7" font-family="Helvetica Neue" font-size="14.00"> </text>
<text text-anchor="middle" x="376.16" y="-480.5" font-family="Helvetica Neue" font-size="14.00">BelongsTo</text>
<text text-anchor="middle" x="376.16" y="-463.25" font-family="Helvetica Neue" font-size="14.00">employee</text>
</g>
<!-- appmodelsrole&#45;&gt;appmodelsuser -->
<g id="edge21" class="edge">
<title>appmodelsrole:id&#45;&gt;appmodelsuser:role_id</title>
<path fill="none" stroke="#fcbf49" stroke-width="1.8" d="M747.53,-1291.93C714.04,-1276.92 675.75,-1259.75 675.75,-1259.75 675.75,-1259.75 671.25,-1259.75 671.25,-1259.75 671.25,-1259.75 639.81,-1273.85 608.98,-1287.67"/>
<polygon fill="#fcbf49" stroke="#fcbf49" stroke-width="1.8" points="609.14,-1287.6 598.17,-1287.58 604.03,-1289.89 600.56,-1291.44 600.56,-1291.44 600.56,-1291.44 604.03,-1289.89 601.86,-1295.79 609.14,-1287.6"/>
<text text-anchor="middle" x="673.5" y="-1263.7" font-family="Helvetica Neue" font-size="14.00"> </text>
<text text-anchor="middle" x="706.2" y="-1247.66" font-family="Helvetica Neue" font-size="14.00">HasMany</text>
<text text-anchor="middle" x="706.2" y="-1230.41" font-family="Helvetica Neue" font-size="14.00">users</text>
</g>
<!-- appmodelstimetracking -->
<g id="node15" class="node">
<title>appmodelstimetracking</title>
<polygon fill="none" stroke="black" points="102.25,-1161 0,-1161 0,-1061 102.25,-1061 102.25,-1161"/>
<polygon fill="#d3d3d3" stroke="none" points="0,-1121.75 0,-1161 102.25,-1161 102.25,-1121.75 0,-1121.75"/>
<polygon fill="none" stroke="black" points="0,-1121.75 0,-1161 102.25,-1161 102.25,-1121.75 0,-1121.75"/>
<text text-anchor="start" x="11" y="-1136.7" font-family="Helvetica Neue" font-size="14.00" fill="#333333">TimeTracking</text>
</g>
</g>
</svg>
